<?xml version="1.0" encoding="UTF-8"?>
<svg id="Layer_2" data-name="Layer 2" xmlns="http://www.w3.org/2000/svg" xmlns:xlink="http://www.w3.org/1999/xlink" viewBox="0 0 1024 1024">
  <defs>
    <style>
      .cls-1 {
        fill: none;
      }

      .cls-2 {
        filter: url(#drop-shadow-1);
      }

      .cls-3 {
        filter: url(#drop-shadow-2);
      }

      .cls-4 {
        fill: #c70036;
      }

      .cls-5 {
        fill: url(#linear-gradient-2);
      }

      .cls-6 {
        fill: #fdf2f0;
      }

      .cls-7 {
        fill: url(#linear-gradient);
      }

      .cls-8 {
        fill: url(#Border_Gradiant);
      }

      .cls-9 {
        fill: #fbdedc;
      }

      .cls-10 {
        fill: #fcebe9;
      }

      .cls-11 {
        clip-path: url(#clippath);
      }
    </style>
    <clipPath id="clippath">
      <path class="cls-1" d="M1024,512c-2.27,169.54-31.96,309.94-118.18,393.82-83.88,86.22-224.28,115.91-393.82,118.18-169.54-2.27-309.94-31.96-393.82-118.18C31.96,821.94,2.27,681.54,0,512,2.27,342.46,31.96,202.06,118.18,118.18,202.06,31.96,342.46,2.27,512,0c169.54,2.27,309.94,31.96,393.82,118.18,86.22,83.88,115.92,224.28,118.18,393.82Z"/>
    </clipPath>
    <filter id="drop-shadow-1" x="160.32" y="91.89" width="703.44" height="460.32" filterUnits="userSpaceOnUse">
      <feOffset dx="0" dy="0"/>
      <feGaussianBlur result="blur" stdDeviation="40"/>
      <feFlood flood-color="#000" flood-opacity=".5"/>
      <feComposite in2="blur" operator="in"/>
      <feComposite in="SourceGraphic"/>
    </filter>
    <filter id="drop-shadow-2" x="75.36" y="201.75" width="873" height="731" filterUnits="userSpaceOnUse">
      <feOffset dx="0" dy="0"/>
      <feGaussianBlur result="blur-2" stdDeviation="40"/>
      <feFlood flood-color="#000" flood-opacity=".5"/>
      <feComposite in2="blur-2" operator="in"/>
      <feComposite in="SourceGraphic"/>
    </filter>
    <linearGradient id="linear-gradient" x1="462.08" y1="762.08" x2="858.92" y2="365.25" gradientUnits="userSpaceOnUse">
      <stop offset="0" stop-color="#fff" stop-opacity=".1"/>
      <stop offset=".05" stop-color="#fff" stop-opacity=".11"/>
      <stop offset=".08" stop-color="#fff" stop-opacity=".14"/>
      <stop offset=".11" stop-color="#fff" stop-opacity=".2"/>
      <stop offset=".13" stop-color="#fff" stop-opacity=".28"/>
      <stop offset=".15" stop-color="#fff" stop-opacity=".38"/>
      <stop offset=".17" stop-color="#fff" stop-opacity=".51"/>
      <stop offset=".19" stop-color="#fff" stop-opacity=".66"/>
      <stop offset=".2" stop-color="#fff" stop-opacity=".8"/>
      <stop offset=".8" stop-color="#fff" stop-opacity=".8"/>
      <stop offset=".81" stop-color="#fff" stop-opacity=".66"/>
      <stop offset=".83" stop-color="#fff" stop-opacity=".51"/>
      <stop offset=".85" stop-color="#fff" stop-opacity=".38"/>
      <stop offset=".87" stop-color="#fff" stop-opacity=".28"/>
      <stop offset=".89" stop-color="#fff" stop-opacity=".2"/>
      <stop offset=".92" stop-color="#fff" stop-opacity=".14"/>
      <stop offset=".95" stop-color="#fff" stop-opacity=".11"/>
      <stop offset="1" stop-color="#fff" stop-opacity=".1"/>
    </linearGradient>
    <linearGradient id="linear-gradient-2" x1="214.26" y1="712.9" x2="512.74" y2="414.43" xlink:href="#linear-gradient"/>
    <linearGradient id="Border_Gradiant" data-name="Border Gradiant" x1="118.17" y1="905.83" x2="905.83" y2="118.17" gradientUnits="userSpaceOnUse">
      <stop offset="0" stop-color="#fff" stop-opacity=".1"/>
      <stop offset=".05" stop-color="#fff" stop-opacity=".11"/>
      <stop offset=".08" stop-color="#fff" stop-opacity=".14"/>
      <stop offset=".11" stop-color="#fff" stop-opacity=".2"/>
      <stop offset=".13" stop-color="#fff" stop-opacity=".28"/>
      <stop offset=".15" stop-color="#fff" stop-opacity=".38"/>
      <stop offset=".17" stop-color="#fff" stop-opacity=".51"/>
      <stop offset=".19" stop-color="#fff" stop-opacity=".66"/>
      <stop offset=".2" stop-color="#fff" stop-opacity=".8"/>
      <stop offset=".8" stop-color="#fff" stop-opacity=".8"/>
      <stop offset=".81" stop-color="#fff" stop-opacity=".66"/>
      <stop offset=".83" stop-color="#fff" stop-opacity=".51"/>
      <stop offset=".85" stop-color="#fff" stop-opacity=".38"/>
      <stop offset=".87" stop-color="#fff" stop-opacity=".28"/>
      <stop offset=".89" stop-color="#fff" stop-opacity=".2"/>
      <stop offset=".92" stop-color="#fff" stop-opacity=".14"/>
      <stop offset=".95" stop-color="#fff" stop-opacity=".11"/>
      <stop offset="1" stop-color="#fff" stop-opacity=".1"/>
    </linearGradient>
  </defs>
  <g id="Layer_1-2" data-name="Layer 1">
    <g>
      <g class="cls-11">
        <rect class="cls-4" x="0" width="1024" height="1024"/>
        <g>
          <g class="cls-2">
            <path class="cls-10" d="M725.65,212.19c-204.37,32.1-213.59,194.04-213.59,194.04,0,0-5.83-149.83-212.97-192.96-9.63-2.01-18.68,5.37-18.68,15.21v203.58s463.19,0,463.19,0v-204.53c0-9.53-8.52-16.83-17.94-15.35Z"/>
          </g>
          <g class="cls-3">
            <g>
              <path class="cls-9" d="M800.64,323.02l-288.64,90.67h0v398.31c4.07.01,8.14-.65,12.03-2.02l283.56-99.22c12.27-4.29,20.49-15.87,20.49-28.87v-338.76c0-14.25-13.84-24.4-27.44-20.13Z"/>
              <path class="cls-7" d="M807.01,334.03c4.36,0,9.07,3.48,9.07,9.11v338.76c0,7.89-5,14.93-12.45,17.54l-279.63,97.84v-374.78l280.24-88.03c.92-.29,1.85-.43,2.77-.43M807.01,322.03c-2.09,0-4.23.31-6.37.99l-288.64,90.67v398.31h.14c4.02,0,8.04-.67,11.89-2.02l283.56-99.22c12.27-4.29,20.49-15.87,20.49-28.87v-338.76c0-12.01-9.84-21.11-21.07-21.11h0Z"/>
            </g>
            <g>
              <path class="cls-6" d="M195.92,343.14v338.76c0,13,8.22,24.57,20.49,28.87l283.84,99.22c3.81,1.33,7.78,2,11.75,2.01v-398.31l-288.65-90.67c-13.6-4.27-27.44,5.88-27.44,20.13Z"/>
              <path class="cls-5" d="M216.99,334.03c.92,0,1.85.15,2.77.43l280.24,88.03v374.69l-279.63-97.75c-7.45-2.61-12.45-9.65-12.45-17.54v-338.76c0-5.63,4.71-9.11,9.07-9.11M216.99,322.03c-11.24,0-21.07,9.1-21.07,21.11v338.76c0,13,8.22,24.57,20.49,28.87l283.84,99.22c3.81,1.33,7.78,2,11.75,2.01v-398.31l-288.65-90.67c-2.13-.67-4.27-.99-6.37-.99h0Z"/>
            </g>
          </g>
        </g>
      </g>
      <path class="cls-8" d="M512,8c90.68,1.22,164.89,10.15,226.9,27.32,33.51,9.28,63.8,21.18,90.03,35.38,27.38,14.82,51.31,32.67,71.15,53.07.05.05.1.1.16.16,20.39,19.84,38.25,43.78,53.06,71.15,14.2,26.23,26.1,56.52,35.38,90.03,17.16,62.01,26.1,136.22,27.32,226.9-1.22,90.68-10.16,164.89-27.32,226.9-9.28,33.51-21.18,63.8-35.38,90.03-14.82,27.38-32.67,51.31-53.07,71.15-.05.05-.1.1-.16.16-19.84,20.39-43.78,38.25-71.15,53.06-26.23,14.2-56.52,26.1-90.03,35.38-62,17.16-136.22,26.1-226.9,27.32-90.68-1.22-164.89-10.16-226.9-27.32-33.51-9.28-63.8-21.18-90.03-35.38-27.38-14.82-51.31-32.67-71.15-53.06-.05-.05-.1-.1-.16-.16-20.39-19.84-38.25-43.78-53.06-71.15-14.2-26.23-26.1-56.52-35.38-90.03-17.16-62-26.1-136.22-27.32-226.9,1.22-90.68,10.15-164.89,27.32-226.9,9.28-33.51,21.18-63.8,35.38-90.03,14.82-27.38,32.67-51.31,53.06-71.15.05-.05.1-.1.16-.16,19.84-20.39,43.78-38.25,71.15-53.06,26.23-14.2,56.52-26.1,90.03-35.38,62.01-17.16,136.22-26.1,226.9-27.32M512,0C342.46,2.27,202.06,31.96,118.18,118.18,31.96,202.06,2.27,342.46,0,512c2.27,169.54,31.96,309.94,118.18,393.82,83.88,86.22,224.28,115.92,393.82,118.18,169.54-2.27,309.94-31.96,393.82-118.18,86.22-83.88,115.92-224.28,118.18-393.82-2.27-169.54-31.96-309.94-118.18-393.82C821.94,31.96,681.54,2.27,512,0h0Z"/>
    </g>
  </g>
</svg>